<?xml version="1.0" encoding="utf-8"?>
<!-- Generator: Adobe Illustrator 16.0.4, SVG Export Plug-In . SVG Version: 6.00 Build 0)  -->
<!DOCTYPE svg PUBLIC "-//W3C//DTD SVG 1.1//EN" "http://www.w3.org/Graphics/SVG/1.1/DTD/svg11.dtd">
<svg version="1.1" id="Layer_1" xmlns="http://www.w3.org/2000/svg" xmlns:xlink="http://www.w3.org/1999/xlink" x="0px" y="0px"
	 width="22.998px" height="23px" viewBox="0 0 22.998 23" enable-background="new 0 0 22.998 23" xml:space="preserve">
<g>
	<g>
		<path fill-rule="evenodd" clip-rule="evenodd" fill="#FAFBFB" d="M11.5,0C5.149,0,0,5.148,0,11.499S5.149,23,11.5,23
			c2.994,0,5.713-1.154,7.76-3.033l-0.707-0.707c-1.863,1.695-4.333,2.738-7.053,2.738C5.701,21.998,1,17.299,1,11.499
			C1,5.702,5.701,1,11.5,1c5.799,0,10.498,4.702,10.498,10.499c0,1.383-1.117,2.5-2.5,2.5c-1.379,0-2.5-1.117-2.5-2.5
			c0-3.037-2.462-5.5-5.498-5.5c-3.038,0-5.501,2.463-5.501,5.5c0,3.039,2.463,5.5,5.501,5.5c2.335,0,4.324-1.457,5.122-3.512
			c0.632,0.912,1.684,1.512,2.876,1.512c1.934,0,3.5-1.566,3.5-3.5C22.998,5.148,17.85,0,11.5,0z M11.5,15.999
			c-2.485,0-4.501-2.014-4.501-4.5c0-2.484,2.016-4.5,4.501-4.5s4.498,2.016,4.498,4.5C15.998,13.985,13.985,15.999,11.5,15.999z"/>
	</g>
</g>
</svg>
