<?xml version="1.0" encoding="utf-8"?>
<!-- Generator: Adobe Illustrator 16.0.4, SVG Export Plug-In . SVG Version: 6.00 Build 0)  -->
<!DOCTYPE svg PUBLIC "-//W3C//DTD SVG 1.1//EN" "http://www.w3.org/Graphics/SVG/1.1/DTD/svg11.dtd">
<svg version="1.1" id="Layer_1" xmlns="http://www.w3.org/2000/svg" xmlns:xlink="http://www.w3.org/1999/xlink" x="0px" y="0px"
	 width="24px" height="18px" viewBox="0 0 24 18" enable-background="new 0 0 24 18" xml:space="preserve">
<g>
	<g>
		<path fill="#FAFBFB" d="M15.707,12.707c0.391-0.391,0.391-1.023,0-1.414l-3-3c-0.092-0.092-0.202-0.166-0.325-0.216
			c-0.245-0.101-0.52-0.101-0.765,0c-0.123,0.051-0.233,0.124-0.325,0.216l-3,3c-0.391,0.391-0.391,1.023,0,1.414
			s1.023,0.391,1.414,0L11,11.414V17c0,0.552,0.447,1,1,1s1-0.448,1-1v-5.586l1.293,1.293C14.488,12.902,14.744,13,15,13
			S15.512,12.902,15.707,12.707z M19.659,6.237C18.342,3.647,15.684,2,12.75,2c-2.63,0-5.061,1.329-6.485,3.506
			c-2.295,0.119-4.14,1.965-4.259,4.26C0.77,10.593,0,11.994,0,13.5C0,15.981,2.019,18,4.5,18H8c0.553,0,1-0.448,1-1s-0.447-1-1-1
			H4.5C3.121,16,2,14.878,2,13.5c0-0.963,0.571-1.851,1.454-2.262c0.386-0.179,0.615-0.581,0.574-1.003L4,10
			c0-1.373,1.112-2.491,2.552-2.491c0.006,0,0.012,0,0.017,0.001l0.155,0.018C7.116,7.568,7.504,7.36,7.694,7.01
			C8.702,5.152,10.64,4,12.75,4c2.305,0,4.38,1.37,5.288,3.49c0.13,0.304,0.403,0.524,0.729,0.587C20.64,8.442,22,10.092,22,12
			c0,2.206-1.794,4-4,4h-2c-0.553,0-1,0.448-1,1s0.447,1,1,1h2c3.309,0,6-2.691,6-6C24,9.312,22.203,6.968,19.659,6.237z"/>
	</g>
</g>
<rect fill="none" width="24" height="0.828"/>
</svg>
