<?xml version="1.0" encoding="utf-8"?>
<!-- Generator: Adobe Illustrator 16.0.4, SVG Export Plug-In . SVG Version: 6.00 Build 0)  -->
<!DOCTYPE svg PUBLIC "-//W3C//DTD SVG 1.1//EN" "http://www.w3.org/Graphics/SVG/1.1/DTD/svg11.dtd">
<svg version="1.1" id="Layer_1" xmlns="http://www.w3.org/2000/svg" xmlns:xlink="http://www.w3.org/1999/xlink" x="0px" y="0px"
	 width="24.001px" height="18px" viewBox="0 0 24.001 18" enable-background="new 0 0 24.001 18" xml:space="preserve">
<g>
	<g>
		<path fill="#FAFBFB" d="M22.448,8.005l-1.327,1.503c0.552,0.689,0.881,1.559,0.881,2.492c0,2.205-1.795,4-4,4H4.5
			C3.121,16,2,14.877,2,13.5c0-0.963,0.571-1.852,1.454-2.262c0.385-0.18,0.615-0.582,0.574-1.004L4,10
			c0-1.375,1.112-2.492,2.553-2.492H6.57l0.153,0.018C7.119,7.568,7.505,7.359,7.695,7.01C8.703,5.152,10.641,4,12.751,4
			c1.11,0,2.164,0.324,3.062,0.891l1.331-1.507C15.876,2.509,14.36,2,12.751,2c-2.63,0-5.061,1.328-6.486,3.506
			C3.97,5.625,2.125,7.471,2.006,9.764C0.77,10.592,0,11.994,0,13.5C0,15.98,2.019,18,4.5,18h13.501c3.309,0,6-2.691,6-6
			C24.001,10.478,23.411,9.076,22.448,8.005z M8.208,9.293c-0.391-0.391-1.023-0.391-1.414,0c-0.392,0.391-0.392,1.023,0,1.414l4,4
			C10.989,14.902,11.245,15,11.501,15s0.512-0.098,0.707-0.293l9-9.001c0.391-0.391,0.391-1.023,0-1.414s-1.023-0.391-1.414,0
			l-8.293,8.294L8.208,9.293z"/>
	</g>
</g>
</svg>
